HIERARCHY
ROOT Hips
{
	OFFSET 0.000000 8.830580 0.000000
	CHANNELS 6 Xposition Yposition Zposition Zrotation Yrotation Xrotation 
	JOINT Spine
	{
		OFFSET 0.000000 0.010000 0.000000
		CHANNELS 3 Zrotation Yrotation Xrotation
		JOINT Spine1
		{
			OFFSET 0.000000 2.459130 0.000000
			CHANNELS 3 Zrotation Yrotation Xrotation
			JOINT Neck
			{
				OFFSET 0.000000 2.484630 0.000000
				CHANNELS 3 Zrotation Yrotation Xrotation
				JOINT Head_virtual
				{
					OFFSET 0.000000 0.000000 0.000000
					CHANNELS 3 Zrotation Yrotation Xrotation
					JOINT Head
					{
						OFFSET 0.000000 0.927525 0.000000
						CHANNELS 3 Zrotation Yrotation Xrotation
						End Site
						{
							OFFSET 0.000000 0.000000 0.000000
						}
					}
				}
				JOINT LeftUpArm_virtual
				{
					OFFSET 0.000000 0.000000 0.000000
					CHANNELS 3 Zrotation Yrotation Xrotation
					JOINT LeftUpArm
					{
						OFFSET 1.248820 0.000000 0.000000
						CHANNELS 3 Zrotation Yrotation Xrotation
						JOINT LeftForeArm
						{
							OFFSET 2.597580 0.000000 0.000000
							CHANNELS 3 Zrotation Yrotation Xrotation
							JOINT LeftHand
							{
								OFFSET 2.455420 0.000000 0.000000
								CHANNELS 3 Zrotation Yrotation Xrotation
								End Site
								{
									OFFSET 0.000000 0.000000 0.000000
								}
							}
						}
					}
				}
				JOINT RightUpArm_virtual
				{
					OFFSET -0.000000 -0.000000 -0.000000
					CHANNELS 3 Zrotation Yrotation Xrotation
					JOINT RightUpArm
					{
						OFFSET -1.248820 -0.000000 -0.000000
						CHANNELS 3 Zrotation Yrotation Xrotation
						JOINT RightForeArm
						{
							OFFSET -2.597580 -0.000000 -0.000000
							CHANNELS 3 Zrotation Yrotation Xrotation
							JOINT RightHand
							{
								OFFSET -2.455420 -0.000000 -0.000000
								CHANNELS 3 Zrotation Yrotation Xrotation
								End Site
								{
									OFFSET 0.000000 0.000000 0.000000
								}
							}
						}
					}
				}
			}
		}
	}
	JOINT LeftUpLeg
	{
		OFFSET 1.271939 0.000000 0.000000
		CHANNELS 3 Zrotation Yrotation Xrotation
		JOINT LeftLowLeg
		{
			OFFSET 0.000000 -4.342910 0.000000
			CHANNELS 3 Zrotation Yrotation Xrotation
			JOINT LeftFoot
			{
				OFFSET 0.000000 -4.487670 0.000000
				CHANNELS 3 Zrotation Yrotation Xrotation
				JOINT LeftToeBase
				{
					OFFSET 0.000000 0.000000 1.515070
					CHANNELS 3 Zrotation Yrotation Xrotation
					End Site
					{
						OFFSET 0.000000 0.000000 0.000000
					}
				}
			}
		}
	}
	JOINT RightUpLeg
	{
		OFFSET -1.271939 0.000000 0.000000
		CHANNELS 3 Zrotation Yrotation Xrotation
		JOINT RightLowLeg
		{
			OFFSET 0.000000 -4.342910 0.000000
			CHANNELS 3 Zrotation Yrotation Xrotation
			JOINT RightFoot
			{
				OFFSET 0.000000 -4.487670 0.000000
				CHANNELS 3 Zrotation Yrotation Xrotation
				JOINT RightToeBase
				{
					OFFSET 0.000000 0.000000 1.515070
					CHANNELS 3 Zrotation Yrotation Xrotation
					End Site
					{
						OFFSET 0.000000 0.000000 0.000000
					}
				}
			}
		}
	}
}
MOTION
Frames: 17
Frame Time: 0.041667
-12.930279 9.015314 39.534528 -172.896502 12.887555 175.999139 2.418257 0.402518 -13.394736 -1.766274 -5.372926 27.225946 0.000000 0.000000 0.000000 5.314669 -15.973833 22.429071 6.791985 21.536736 -56.824346 -24.267599 -2.453030 -13.849200 -20.478701 -1.115210 27.011400 0.000000 -40.582500 0.000000 12.994900 5.119480 2.621760 22.751801 -1.947470 -2.656660 5.887350 21.633600 1.255030 0.000000 61.168999 0.000000 13.835800 1.237160 4.420380 2.322517 11.863367 7.982323 0.000000 0.000000 6.436660 -0.712323 7.216578 4.993456 0.000000 0.000000 -10.910290 5.040961 10.775698 -15.965539 0.000000 0.000000 37.442600 16.244879 -23.429367 11.539555 0.000000 0.000000 -26.594800 
-12.936353 9.004615 39.436797 -173.040022 13.003316 176.245131 2.636875 0.503107 -13.738941 -1.931667 -5.384299 27.176920 0.000000 0.000000 0.000000 5.056970 -15.740184 21.972531 6.724932 21.185816 -56.718162 -23.974001 -2.783910 -13.917400 -19.878700 -2.133380 27.421400 0.000000 -40.528198 0.000000 12.365800 4.867100 3.702710 23.146200 -1.725060 -2.858160 6.797600 21.882099 -2.007730 0.000000 62.204700 0.000000 17.292000 0.626775 0.486681 2.163367 12.250115 8.592403 0.000000 0.000000 5.874930 -0.808433 6.862232 4.749501 0.000000 0.000000 -10.885450 4.622577 11.687746 -16.636240 0.000000 0.000000 33.730499 15.756698 -23.015060 11.931524 0.000000 0.000000 -26.355200 
-12.943039 8.989099 39.338711 -173.282739 13.053038 176.558769 2.888983 0.734285 -14.235894 -2.281343 -5.308419 27.352245 0.000000 0.000000 0.000000 4.857556 -15.533812 21.198737 6.666557 20.871282 -56.486461 -23.638500 -3.064480 -14.121200 -19.433100 -3.281150 27.794600 0.000000 -40.442299 0.000000 11.779700 4.737490 4.939200 23.590500 -1.528610 -3.189900 7.698910 22.031500 -4.960060 0.000000 62.879002 0.000000 19.147400 1.046750 -2.893060 1.900926 12.726996 9.150377 0.000000 0.000000 5.221610 -0.877877 6.392381 4.532740 0.000000 0.000000 -10.907510 4.047012 12.447966 -17.427827 0.000000 0.000000 30.231800 15.294513 -22.328174 12.307483 0.000000 0.000000 -26.405400 
-12.950689 8.971047 39.241128 -173.531165 12.803925 176.912491 3.119383 0.871279 -14.815052 -2.589297 -5.295411 27.653857 0.000000 0.000000 0.000000 4.670224 -15.364401 20.172180 6.970055 20.422240 -56.068956 -23.464199 -3.347080 -14.369400 -19.029200 -4.471210 28.070400 0.000000 -40.301399 0.000000 11.352000 4.698560 5.776410 23.999800 -1.243700 -3.416330 8.363850 22.021999 -7.658520 0.000000 63.240101 0.000000 19.244600 2.202270 -5.605640 1.574235 12.837875 9.569137 0.000000 0.000000 4.653240 -0.951569 6.006785 4.253094 0.000000 0.000000 -10.873540 3.442635 12.763727 -18.108281 0.000000 0.000000 26.610701 14.183122 -21.459608 12.900439 0.000000 0.000000 -26.609100 
-12.958421 8.952818 39.141603 -173.744359 12.422231 177.230105 3.442060 1.095613 -15.334772 -2.989604 -5.259348 27.972532 0.000000 0.000000 0.000000 4.633987 -15.367042 19.167478 7.235923 20.120068 -55.698390 -23.297899 -3.714480 -14.631200 -18.743000 -5.458240 28.151400 0.000000 -40.283298 0.000000 10.990800 4.603250 6.719680 24.352699 -0.967962 -3.710770 9.097600 21.731501 -9.935710 0.000000 63.285599 0.000000 18.185499 3.907870 -7.141200 1.157311 12.238623 10.045631 0.000000 0.000000 3.993580 -1.020840 6.214548 4.008796 0.000000 0.000000 -10.824510 2.937601 12.653511 -18.525881 0.000000 0.000000 22.817801 12.676324 -20.304932 13.706679 0.000000 0.000000 -26.734100 
-12.962540 8.936479 39.036487 -173.902023 11.888927 177.437597 3.769515 1.313742 -15.847675 -3.308489 -5.209875 28.470383 0.000000 0.000000 0.000000 4.639187 -15.397933 18.035660 7.613852 19.825330 -55.320275 -23.192600 -3.983110 -14.808100 -18.637600 -6.495330 28.087000 0.000000 -40.349098 0.000000 10.970500 4.482980 7.523640 24.568300 -0.724518 -3.908960 9.719640 21.338200 -11.930900 0.000000 63.137402 0.000000 16.795900 4.607920 -9.472330 0.925126 11.934777 10.582199 0.000000 0.000000 3.524970 -1.108672 6.017079 3.725856 0.000000 0.000000 -10.784080 2.508810 12.583726 -18.555371 0.000000 0.000000 18.771700 11.063041 -19.183448 14.774441 0.000000 0.000000 -26.523900 
-12.965675 8.920070 38.931339 -174.062136 11.070001 177.658205 4.066647 1.510163 -16.107548 -3.579212 -5.194027 28.585114 0.000000 0.000000 0.000000 4.797780 -15.648950 17.192046 7.974365 19.686753 -55.212552 -23.228800 -4.170920 -14.983200 -18.634501 -7.420030 28.115299 0.000000 -40.572102 0.000000 11.221900 4.352680 8.382200 24.827900 -0.771860 -3.963230 10.269000 20.952700 -13.756300 0.000000 62.503201 0.000000 14.645700 6.066520 -11.761900 0.714038 11.582690 10.959762 0.000000 0.000000 3.271960 -1.112344 5.690009 3.419368 0.000000 0.000000 -10.838920 2.080729 12.332981 -18.409330 0.000000 0.000000 14.660900 9.750746 -18.219222 16.057690 0.000000 0.000000 -26.648900 
-12.966616 8.907442 38.825133 -174.243496 10.083925 177.842130 4.331430 1.592730 -16.522266 -3.929643 -5.250717 28.980175 0.000000 0.000000 0.000000 4.912244 -15.788100 16.246421 8.466696 19.486426 -54.920948 -23.203699 -4.374490 -15.186400 -18.731899 -8.001820 27.935301 0.000000 -41.016201 0.000000 11.564300 4.083100 9.241900 24.963699 -0.517440 -4.188320 10.891600 20.308800 -15.115500 0.000000 61.535801 0.000000 12.087400 7.114400 -12.600000 0.522412 11.174503 11.251108 0.000000 0.000000 3.234300 -1.156177 5.295173 3.163815 0.000000 0.000000 -10.953700 1.680463 11.956345 -18.081051 0.000000 0.000000 10.602000 8.371055 -17.486202 17.646835 0.000000 0.000000 -26.924700 
-12.963974 8.897870 38.715699 -174.423244 8.842348 177.943733 4.541869 1.575491 -16.880073 -4.224650 -5.358686 29.429772 0.000000 0.000000 0.000000 5.102222 -16.024838 15.330977 8.930655 19.345439 -54.724770 -23.212000 -4.585430 -15.319700 -18.891800 -8.362110 27.743999 0.000000 -41.697300 0.000000 11.983500 3.884340 9.526720 25.099400 -0.345089 -4.446320 11.406100 19.661800 -16.285801 0.000000 60.230499 0.000000 9.390840 7.919090 -13.265700 0.406196 10.640779 11.517391 0.000000 0.000000 3.406520 -1.167366 4.763332 2.928022 0.000000 0.000000 -11.039080 1.373933 11.254397 -17.510687 0.000000 0.000000 6.739110 6.941037 -16.748703 19.142918 0.000000 0.000000 -26.706500 
-12.957716 8.891029 38.604705 -174.556391 7.428449 177.969776 4.709558 1.464767 -17.151778 -4.378491 -5.503833 29.926638 0.000000 0.000000 0.000000 5.315960 -16.307281 14.442906 9.394968 19.226714 -54.661668 -23.296801 -4.732830 -15.422300 -19.103001 -8.599640 27.597900 0.000000 -42.498901 0.000000 12.233200 3.623260 9.359870 25.146299 -0.217746 -4.765880 11.887700 18.915300 -17.245701 0.000000 58.704498 0.000000 6.601640 8.091240 -14.213900 0.387011 9.968867 11.716343 0.000000 0.000000 3.854510 -1.259444 4.175860 2.645629 0.000000 0.000000 -11.220280 1.249399 10.261076 -16.674485 0.000000 0.000000 3.174460 6.408001 -15.994978 20.313319 0.000000 0.000000 -26.503300 
-12.947040 8.885617 38.486951 -174.689408 5.793612 177.899235 4.727192 1.169749 -17.234005 -4.239897 -5.719939 30.177043 0.000000 0.000000 0.000000 5.472205 -16.658330 13.840282 9.876820 19.027633 -54.843849 -23.562000 -4.769890 -14.690800 -19.260500 -8.930530 27.083200 0.000000 -43.348000 0.000000 12.677000 3.355410 8.595630 25.126900 -0.156266 -4.565750 12.070900 18.284700 -18.420401 0.000000 56.666199 0.000000 3.387470 8.213170 -14.927800 0.394750 9.030606 11.909850 0.000000 0.000000 4.516280 -1.404907 3.680949 2.354160 0.000000 0.000000 -11.568580 1.243638 8.999364 -15.605301 0.000000 0.000000 0.194989 6.793170 -15.227552 20.941139 0.000000 0.000000 -26.706600 
-12.931869 8.881302 38.371943 -174.886995 4.314417 177.817798 4.639209 0.989215 -17.277455 -3.929547 -5.746487 30.608591 0.000000 0.000000 0.000000 5.811855 -17.169969 12.899997 10.436669 18.899921 -55.005873 -23.799299 -4.849230 -15.232300 -19.654800 -8.754300 27.908899 0.000000 -44.346401 0.000000 12.928600 3.184120 7.714030 24.951500 -0.242505 -5.224450 12.575000 17.483900 -18.859301 0.000000 54.361198 0.000000 0.748666 8.406340 -15.931200 0.417450 8.355982 12.042323 0.000000 0.000000 5.336870 -1.655560 3.070009 2.161203 0.000000 0.000000 -11.808030 0.962626 8.875261 -14.937541 0.000000 0.000000 -1.256700 9.250806 -15.323614 20.125721 0.000000 0.000000 -25.449400 
-12.911357 8.879383 38.254392 -175.003958 2.853402 177.826737 4.436205 0.612942 -17.486333 -3.120535 -5.791975 31.181049 0.000000 0.000000 0.000000 5.793795 -17.436293 11.855085 11.157165 18.378584 -55.121354 -24.208000 -4.903900 -15.422000 -20.071899 -8.528130 28.598700 0.000000 -45.261200 0.000000 13.187600 3.067830 6.623930 24.555201 -0.196465 -5.572880 12.766700 17.020100 -19.219601 0.000000 52.126900 0.000000 -3.150820 5.618720 -16.976200 0.546170 7.608537 12.086396 0.000000 0.000000 6.194290 -1.858976 2.481866 1.955535 0.000000 0.000000 -12.157400 0.808064 8.920601 -14.590730 0.000000 0.000000 -1.349040 11.942765 -15.483771 19.011691 0.000000 0.000000 -25.146200 
-12.883266 8.879812 38.135451 -175.091496 1.477325 177.875829 3.976537 0.037611 -17.617004 -1.680497 -5.802948 31.514757 0.000000 0.000000 0.000000 5.532265 -17.661299 11.058114 11.922791 17.570897 -55.341936 -25.049200 -4.913670 -15.699500 -20.347300 -8.113800 29.710199 0.000000 -46.057098 0.000000 13.272300 2.884330 5.800920 23.828300 -0.181207 -5.877400 13.143800 16.414400 -19.843599 0.000000 49.096600 0.000000 -5.681870 5.331510 -17.276899 0.836103 7.184624 12.062922 0.000000 0.000000 7.145460 -2.031504 1.641225 1.805441 0.000000 0.000000 -12.890830 0.754751 9.410493 -14.511082 0.000000 0.000000 -0.225166 13.429890 -15.942617 17.861942 0.000000 0.000000 -24.841500 
-12.848034 8.882112 38.005539 -175.143445 0.378922 177.817741 3.536186 -0.367471 -17.694676 -0.221231 -5.684389 31.804053 0.000000 0.000000 0.000000 5.322924 -17.963522 10.425033 12.495376 16.805076 -55.503039 -25.836500 -4.804250 -15.671100 -20.601500 -7.654920 30.862200 0.000000 -46.728100 0.000000 13.165100 2.527700 5.370560 23.162600 -0.175346 -6.130840 13.426500 15.713600 -20.598400 0.000000 46.144199 0.000000 -6.560360 4.384170 -17.470800 0.949157 5.896760 12.476071 0.000000 0.000000 7.568820 -2.360273 1.831954 1.842042 0.000000 0.000000 -13.706700 0.938740 10.198217 -14.275099 0.000000 0.000000 1.275660 11.410184 -16.363793 17.761636 0.000000 0.000000 -24.447740 
-12.811496 8.882315 37.870957 -175.254538 -1.014333 177.782156 3.084601 -0.902132 -17.760375 1.176227 -5.685981 31.900709 0.000000 0.000000 0.000000 5.025449 -18.247993 9.804251 13.023846 15.877326 -55.492069 -26.601700 -4.626960 -15.587200 -20.885401 -7.088050 32.297699 0.000000 -47.123299 0.000000 12.880200 2.251410 5.300750 22.489799 -0.228026 -6.268650 13.663700 15.229900 -20.857901 0.000000 43.133900 0.000000 -7.845350 2.810330 -19.766399 1.238566 5.292217 12.669399 0.000000 0.000000 8.366850 -2.473647 1.253783 1.840841 0.000000 0.000000 -14.548621 1.289916 10.165405 -13.635174 0.000000 0.000000 2.123160 7.739147 -16.472362 17.924193 0.000000 0.000000 -24.222630 
-12.772283 8.885846 37.726098 -175.226537 -2.617808 177.710682 2.749111 -1.506149 -17.897092 2.519408 -5.810668 31.991715 0.000000 0.000000 0.000000 4.682550 -18.486566 9.334068 13.452885 14.974701 -55.500267 -27.427200 -4.409960 -15.559300 -21.074200 -6.374160 34.012199 0.000000 -47.264599 0.000000 12.497200 2.051230 5.461120 21.861300 -0.274026 -6.490700 13.971000 14.559000 -20.904800 0.000000 40.140400 0.000000 -8.530400 2.019950 -20.434299 1.599040 4.176778 12.921310 0.000000 0.000000 9.126870 -2.512475 1.055108 1.903523 0.000000 0.000000 -14.847658 1.892708 9.470381 -12.472166 0.000000 0.000000 1.576320 4.425705 -16.768209 18.467849 0.000000 0.000000 -23.216760 
